<svg width="94.000000" height="106.000000" viewBox="0 0 94 106" fill="none" xmlns="http://www.w3.org/2000/svg" xmlns:xlink="http://www.w3.org/1999/xlink">
	<desc>
			Created with Pixso.
	</desc>
	<defs/>
	<path id="$420" d="M15.33 46.72L12.31 46.72L12.31 42.59C4.7 42.11 0 37.98 -0.35 31.55L5.37 31.55C5.68 35.2 8.59 37.16 12.31 37.54L12.31 24.98L10.52 24.51C4.43 22.86 0.66 19.78 0.66 14.52C0.66 8.52 5.6 4.37 12.31 3.73L12.31 -0.55L15.33 -0.55L15.33 3.69C22.33 4.16 27.11 8.39 27.27 14.12L21.78 14.12C21.41 11.01 18.93 9.05 15.33 8.67L15.33 20.5L16.91 20.91C21.73 22.09 27.79 24.73 27.79 31.55C27.79 37.58 23.27 42.07 15.33 42.57L15.33 46.72ZM6.35 14.18C6.34 17.43 9.51 18.89 12.31 19.69L12.31 8.7C8.61 9.2 6.35 11.36 6.35 14.18ZM15.33 25.82L15.33 37.53C19.35 37.07 22.14 34.77 22.14 31.48C22.14 28.22 19.21 26.87 15.33 25.82ZM59.54 105L34.65 105L34.65 100.86L47.45 87.6C51.51 83.3 53.51 80.9 53.51 77.56C53.51 73.79 50.59 71.43 46.74 71.43C42.66 71.43 40.04 74.08 40.06 78.14L34.61 78.14C34.61 71.24 39.78 66.66 46.85 66.66C53.98 66.66 58.93 71.31 58.93 77.38C58.93 81.62 56.96 84.96 50.03 91.96L42.51 99.83L42.51 100.11L59.54 100.11L59.54 105ZM93.56 86.1C93.56 98.5 88.44 105.62 79.71 105.62C70.95 105.6 65.83 98.48 65.83 86.1C65.86 73.79 71.02 66.66 79.71 66.66C88.37 66.66 93.56 73.8 93.56 86.1ZM17.76 97.61L-0.16 97.61L-0.16 93L16.18 67.18L23.21 67.18L23.21 92.77L28.23 92.77L28.23 97.61L23.21 97.61L23.21 105L17.76 105L17.76 97.61ZM71.51 86.1C71.51 95.56 74.59 100.69 79.71 100.69C84.8 100.69 87.88 95.56 87.88 86.1C87.88 76.68 84.79 71.49 79.71 71.49C74.6 71.49 71.52 76.68 71.51 86.1ZM5.82 92.77L17.8 92.77L17.8 73.97L17.51 73.97L5.82 92.48L5.82 92.77Z" fill="#FFFFFF" fill-opacity="1.000000" fill-rule="evenodd"/>
</svg>
