<svg width="204.000000" height="41.000000" viewBox="0 0 204 41" fill="none" xmlns="http://www.w3.org/2000/svg" xmlns:xlink="http://www.w3.org/1999/xlink">
	<desc>
			Created with Pixso.
	</desc>
	<defs>
		<linearGradient id="paint_linear_0_24_0" x1="183.599777" y1="0.000000" x2="183.599777" y2="40.799889" gradientUnits="userSpaceOnUse">
			<stop offset="0.354167" stop-color="#57575B"/>
		</linearGradient>
	</defs>
	<path id="Star 1" d="M18.49 5.85L16.26 12.71C16 13.53 15.23 14.09 14.36 14.09L7.15 14.09C5.21 14.09 4.41 16.57 5.97 17.71L11.81 21.95C12.51 22.46 12.8 23.36 12.54 24.18L10.31 31.04C9.71 32.89 11.82 34.42 13.38 33.28L19.22 29.04C19.92 28.53 20.87 28.53 21.57 29.04L27.41 33.28C28.97 34.42 31.08 32.89 30.48 31.04L28.25 24.18C27.99 23.36 28.28 22.46 28.98 21.95L34.82 17.71C36.38 16.57 35.58 14.09 33.64 14.09L26.43 14.09C25.56 14.09 24.79 13.53 24.53 12.71L22.3 5.85C21.7 4.01 19.09 4.01 18.49 5.85Z" fill="#FFFFFF" fill-opacity="1.000000" fill-rule="evenodd"/>
	<path id="Star 2" d="M59.29 5.85L57.06 12.71C56.8 13.53 56.03 14.09 55.16 14.09L47.95 14.09C46.01 14.09 45.21 16.57 46.77 17.71L52.61 21.95C53.31 22.46 53.6 23.36 53.33 24.18L51.11 31.04C50.51 32.89 52.62 34.42 54.18 33.28L60.02 29.04C60.72 28.53 61.67 28.53 62.37 29.04L68.21 33.28C69.77 34.42 71.88 32.89 71.28 31.04L69.05 24.18C68.79 23.36 69.08 22.46 69.78 21.95L75.62 17.71C77.18 16.57 76.38 14.09 74.44 14.09L67.23 14.09C66.36 14.09 65.59 13.53 65.33 12.71L63.1 5.85C62.5 4.01 59.89 4.01 59.29 5.85Z" fill="#FFFFFF" fill-opacity="1.000000" fill-rule="evenodd"/>
	<path id="Star 3" d="M100.09 5.85L97.86 12.71C97.6 13.53 96.83 14.09 95.96 14.09L88.75 14.09C86.81 14.09 86.01 16.57 87.57 17.71L93.41 21.95C94.11 22.46 94.4 23.36 94.14 24.18L91.91 31.04C91.31 32.89 93.42 34.42 94.98 33.28L100.82 29.04C101.52 28.53 102.47 28.53 103.17 29.04L109.01 33.28C110.57 34.42 112.68 32.89 112.08 31.04L109.86 24.18C109.59 23.36 109.88 22.46 110.58 21.95L116.42 17.71C117.98 16.57 117.18 14.09 115.24 14.09L108.03 14.09C107.16 14.09 106.39 13.53 106.13 12.71L103.9 5.85C103.3 4.01 100.69 4.01 100.09 5.85Z" fill="#FFFFFF" fill-opacity="1.000000" fill-rule="evenodd"/>
	<path id="Star 4" d="M140.89 5.85L138.66 12.71C138.4 13.53 137.63 14.09 136.76 14.09L129.55 14.09C127.61 14.09 126.81 16.57 128.37 17.71L134.21 21.95C134.91 22.46 135.2 23.36 134.94 24.18L132.71 31.04C132.11 32.89 134.22 34.42 135.78 33.28L141.62 29.04C142.32 28.53 143.27 28.53 143.97 29.04L149.81 33.28C151.37 34.42 153.48 32.89 152.88 31.04L150.65 24.18C150.39 23.36 150.68 22.46 151.38 21.95L157.22 17.71C158.78 16.57 157.98 14.09 156.04 14.09L148.83 14.09C147.96 14.09 147.19 13.53 146.93 12.71L144.7 5.85C144.1 4.01 141.49 4.01 140.89 5.85Z" fill="#FFFFFF" fill-opacity="1.000000" fill-rule="evenodd"/>
	<path id="Star 5" d="M181.69 5.85L179.46 12.71C179.2 13.53 178.43 14.09 177.56 14.09L170.35 14.09C168.41 14.09 167.61 16.57 169.17 17.71L175.01 21.95C175.71 22.46 176 23.36 175.74 24.18L173.51 31.04C172.91 32.89 175.02 34.42 176.58 33.28L182.42 29.04C183.12 28.53 184.07 28.53 184.77 29.04L190.61 33.28C192.17 34.42 194.28 32.89 193.68 31.04L191.46 24.18C191.19 23.36 191.48 22.46 192.18 21.95L198.02 17.71C199.58 16.57 198.78 14.09 196.84 14.09L189.63 14.09C188.76 14.09 187.99 13.53 187.73 12.71L185.5 5.85C184.9 4.01 182.29 4.01 181.69 5.85Z" fill="url(#paint_linear_0_24_0)" fill-opacity="1.000000" fill-rule="evenodd"/>
</svg>
